<svg xmlns="http://www.w3.org/2000/svg" viewBox="0 0 512 512" role="img" aria-label="論文レーダー">
  <defs><path id="b" d="M343 283.6L345.4 285L347.8 286.6L350.2 288.2L352.4 290L354.5 291.8L356.6 293.7L358.7 295.7L360.7 297.8L362.7 300L364.7 302.4L366.6 304.9L368.6 307.6L370.5 310.4L372.4 313.5L374.3 316.8L376.1 320.3L377.9 324.1L379.6 328.2L381.2 332.6L382.7 337.4L384 342.4L385.1 347.9L385.9 353.6L386.4 359.7L386.6 366.2L386.4 372.9L385.8 380L410.6 395.2L410.6 395.2L439.7 393L442.5 383.2L444.6 373.4L446.1 363.8L447 354.4L447.3 345.2L447.2 336.1L446.4 327.4L445.2 318.8L443.5 310.6L441.3 302.7L438.7 295.1L435.6 287.9L432.2 281L428.4 274.6L424.2 268.5L419.8 262.9L415.1 257.7L410.1 252.9L405 248.6L399.7 244.6L394.3 241.2L388.8 238.1L383.2 235.4L377.6 233.2L372.1 231.3L366.5 229.7L361 228.4Z" fill="#1a5e54" stroke="#1a5e54" stroke-width="10" stroke-linejoin="round"/></defs>
  <rect width="512" height="512" fill="#f3eee1"/>
  <use href="#b"/>
  <use href="#b" transform="rotate(72 256 256)"/>
  <use href="#b" transform="rotate(144 256 256)"/>
  <use href="#b" transform="rotate(216 256 256)"/>
  <use href="#b" transform="rotate(288 256 256)"/>
  <circle cx="256" cy="256" r="52" fill="none" stroke="#1a5e54" stroke-width="24"/>
</svg>